<?xml version="1.0" encoding="utf-8"?>
<!-- Generator: Adobe Illustrator 24.2.0, SVG Export Plug-In . SVG Version: 6.00 Build 0)  -->
<svg version="1.1" id="Layer_1" xmlns="http://www.w3.org/2000/svg" xmlns:xlink="http://www.w3.org/1999/xlink" x="0px" y="0px"
	 viewBox="0 0 512 512" style="enable-background:new 0 0 512 512;" xml:space="preserve">
<style type="text/css">
	.st0{fill:#D3B07C;}
</style>
<g>
	<g>
		<path class="st0" d="M265.2,31h147.7c2.2,0,4,1.8,4,4v147.7c0,1.2-0.9,2.1-2.1,2.1c-9.8-0.1-19.4-1.2-28.6-3.1
			c-1-0.2-1.7-1.1-1.7-2.1V86.3l-63,63c-0.8,0.8-2,0.9-2.8,0.1c-7.3-6.1-14.1-12.9-20.2-20.2c-0.7-0.9-0.6-2.1,0.1-2.8l62.9-63
			h-93.4c-1,0-1.9-0.7-2.1-1.7c-1.9-9.3-3-18.8-3-28.6C263,31.9,264,31,265.2,31z M125.4,112c0-26.9,21.7-48.6,48.6-48.6h73.5
			c1.3,0,2.3-1.2,2-2.4c-1.6-9.1-2.5-18.4-2.7-27.9c0-1.2-0.9-2.1-2.1-2.1h-70.8C129.3,31,93,67.3,93,112v70.8
			c0,1.2,0.9,2.1,2.1,2.1c9.5,0.1,18.8,1,27.9,2.6c1.3,0.2,2.4-0.7,2.4-2C125.4,185.5,125.4,112,125.4,112z M148.3,322.5l63-63
			c0.8-0.8,0.9-2,0.1-2.8c-6.1-7.3-12.9-14.1-20.2-20.2c-0.9-0.7-2.1-0.6-2.8,0.1l-63,63v-93.4c0-1-0.7-1.9-1.7-2.1
			c-9.3-1.9-18.8-3-28.6-3.1c-1.2,0-2.1,0.9-2.1,2.1v147.7c0,2.2,1.8,4,4,4h147.7c1.2,0,2.1-0.9,2.1-2.1c-0.1-9.8-1.2-19.4-3-28.6
			c-0.2-1-1.1-1.7-2.1-1.7H148.3L148.3,322.5z M384.5,200.5v73.4c0,26.9-21.7,48.6-48.6,48.6h-73.5c-1.3,0-2.3,1.2-2,2.4
			c1.6,9.1,2.5,18.4,2.7,27.9c0,1.2,0.9,2.1,2.1,2.1H336c44.7,0,81-36.3,81-81V203c0-1.2-0.9-2.1-2.1-2.1c-9.5-0.1-18.8-1-27.9-2.6
			C385.7,198.2,384.5,199.2,384.5,200.5z M225.7,245.1l81.3-81.3c0.9-0.9,0.8-2.3-0.1-3.1c-7.1-6-13.7-12.6-19.7-19.7
			c-0.8-0.9-2.2-1-3.1-0.1l-81.2,81.3c-0.9,0.9-0.8,2.3,0.1,3.1c7.1,6,13.7,12.6,19.7,19.7C223.5,245.9,224.9,246,225.7,245.1z"/>
	</g>
	<g>
		<path class="st0" d="M106.5,473.3c6.8,0,13.2,0,20,0c0.2,2.2,0.4,4.3,0.4,6.4c0,1.2-1,1.2-1.9,1.2c-3.7,0-7.4,0-11.2,0
			c-2.7,0-5.4,0-8.2,0c-3.3,0-6.6,0-9.9,0c-1.3,0-1.9-0.5-1.9-1.9c0.1-9.7,0-19.3,0-29c0-2.2,0.5-2.6,2.7-2.3
			c1.2,0.2,2.4,0.4,3.6,0.6c1,0.1,1.4,0.5,1.4,1.5c0,6.1,0,12.1,0,18.1c4-3.9,8-8,12.1-12c0.6-0.6,1.4-1,2.1-0.3
			c1.1,1.1,2.1,2.3,3.2,3.4c0.8,0.8,0.6,1.3-0.2,2c-3.8,3.7-7.6,7.5-11.4,11.3C107.2,472.6,106.9,472.8,106.5,473.3z"/>
		<path class="st0" d="M155.2,424.9c-4.4,4.4-8.7,8.7-13.2,13.3c-1.8-1.7-3.4-3.3-4.8-4.9c-0.2-0.2,0.4-1.2,0.8-1.6
			c3.6-3.6,7.2-7.2,10.8-10.8c0.3-0.3,0.8-0.6,1.2-0.9c-0.1-0.1-0.1-0.2-0.2-0.3c-0.4,0-0.8-0.1-1.2-0.1c-5.6,0-11.2,0-16.8,0
			c-1,0-1.5-0.3-1.6-1.3c-0.1-1.5-0.4-3-0.6-4.4c-0.1-1.1,0.4-1.6,1.5-1.6c10.2,0,20.3,0,30.5,0c0.9,0,1.2,0.4,1.3,1.2
			c0,0.3,0,0.7,0,1c0,9.5,0,18.9,0,28.4c0,2.1-0.8,2.7-2.9,2.3c-1.1-0.2-2.3-0.5-3.4-0.5c-1.2,0-1.4-0.5-1.4-1.5
			c0-5.7,0-11.4,0-17.1C155.2,425.6,155.2,425.3,155.2,424.9z"/>
		<path class="st0" d="M155.2,456.3c0-2.5,0-5,0-7.5c0-1.2,0.2-1.8,1.7-1.4c1.5,0.4,3.1,0.3,4.6,0.4c0.9,0,1.3,0.3,1.3,1.3
			c0,5,0.2,9.9-0.1,14.9c-0.3,6.3-3.4,11.1-8.8,14.5c-3,1.9-6.4,2.5-9.9,2.6c-4.2,0.1-8.5,0-12.7,0.1c-1.4,0-1.9-0.4-1.9-1.9
			c0-1.4-0.1-2.8-0.4-4.2c-0.3-1.4,0.4-1.6,1.4-1.6c3.7,0,7.4,0,11,0c2.6,0,5.2,0.2,7.8-0.9c3-1.3,5-3.4,5.4-6.5
			c0.5-3.2,0.4-6.4,0.5-9.6C155.3,456.3,155.2,456.3,155.2,456.3z"/>
		<path class="st0" d="M126.9,412.1c0.2,2,0.4,3.8,0.6,5.6c0.2,1.4-0.4,1.8-1.7,1.8c-4.9,0-9.7,0-14.6,0c-5.5,0-9.7,4-9.6,9.5
			c0.1,4.9,0,9.7,0,14.6c0,1.6-0.5,2-2.2,1.8c-1.4-0.2-2.9-0.3-4.4-0.3c-0.8,0-1.1-0.3-1.1-1.1c0-5.4-0.3-10.9,0.1-16.3
			c0.4-5.5,3.4-9.7,8-12.8c2.8-1.8,5.8-2.8,9.1-2.8C116.3,412.1,121.5,412.1,126.9,412.1z"/>
		<path class="st0" d="M361.8,448.7c0,3.2,0,5.8,0,8.4c0,1.8-0.5,2.3-2.2,2.3c-4,0-3.7,0.4-3.7-3.7c0-6.8,0-13.6,0-20.4
			c0-1.9,0.1-2,2-2c2.7,0,5.3,0,8,0c3.8,0,7,3.3,7.2,7.1c0.1,3.1-0.8,5.5-3.5,7.1c-0.8,0.5-0.6,1.2-0.3,1.7c1.1,2.6,2.2,5.1,3.4,7.6
			c0.8,1.7,0.2,2.6-1.7,2.6c-3.9,0-3.9,0-5.3-3.7c-0.7-1.9-1.5-3.8-2.4-5.7C363,449.6,362.5,449.4,361.8,448.7z M361.8,443.7
			c1.5-0.2,2.8-0.1,4-0.5c0.6-0.2,1.2-1.4,1.1-2c-0.1-0.7-0.9-1.7-1.6-1.9c-1.1-0.3-2.4-0.1-3.6-0.1
			C361.8,440.7,361.8,442.1,361.8,443.7z"/>
		<path class="st0" d="M297.1,442.1c-0.4,0-0.8,0-1.2,0c-1.1,0.1-1.5-0.3-1.7-1.5c-0.1-0.7-0.9-1.7-1.5-1.9
			c-1.1-0.2-2.3-0.1-3.4,0.3c-0.8,0.3-0.6,2.3,0.3,2.7c1.1,0.6,2.3,1,3.4,1.5c1.7,0.7,3.6,1.3,5.1,2.3c3.5,2.5,3.2,7.5,1.2,10.4
			c-1.9,2.9-4.8,3.8-8.1,3.8c-2.8,0-5.2-0.7-7.1-2.9c-1.4-1.6-2-3.5-1.9-5.6c0-0.5,0.9-1.2,1.6-1.5c0.5-0.3,1.3-0.1,1.9-0.1
			c2.3,0,2.3,0,2.7,2.2c0.3,1.6,2.3,2.6,4.4,2.2c1.5-0.3,2.3-1.5,1.8-3.1c-0.5-1.6-2.2-1.8-3.5-2.2c-2.2-0.7-4.6-1.2-6.2-3.1
			c-3.8-4.3-2.1-10.6,3.6-12.5c3.6-1.2,7.2-0.9,10,2.1c1.4,1.5,2,3.4,1.7,5.5c-0.1,0.4-0.7,0.9-1.2,1.1
			C298.4,442.3,297.7,442.1,297.1,442.1z"/>
		<path class="st0" d="M205.7,445.8c0.2-1.8,0.2-4.4,0.9-6.8c1-3.5,3.6-5.6,7.3-6.1c5.2-0.7,9.3,1.9,10.1,6.9
			c0.6,3.5,0.2,7.2,0.2,10.7c0,2.8-1,5.1-3,7c-2.7,2.6-5.9,2.8-9.2,1.9c-3.4-0.9-5.3-3.3-5.8-6.8
			C205.9,450.6,205.9,448.6,205.7,445.8z M211.6,446.2c0.1,1.8,0.2,3.6,0.4,5.4c0.2,1.6,1.4,2.6,3.2,2.6c1.6,0,2.9-0.9,2.9-2.6
			c0.1-3.4,0.1-6.8,0-10.2c0-1.7-1.4-2.8-3.2-2.9c-1.6-0.1-2.7,0.8-2.9,2.6C211.8,442.8,211.8,444.5,211.6,446.2z"/>
		<path class="st0" d="M349.2,446.2c-0.4,2.8-0.6,5.5-1.3,8.2c-0.7,2.5-4,5.3-7.1,5.5c-2.9,0.2-5.6-0.2-7.8-2.4
			c-1.5-1.6-2.4-3.4-2.5-5.7c-0.1-2.8-0.3-5.5-0.3-8.3c0.1-3.2,0.9-6.3,3.5-8.5c4.3-3.7,12.2-2.5,14.1,3.5
			C348.7,440.8,348.8,443.5,349.2,446.2z M343.1,446.5c-0.1-1.8-0.2-3.7-0.4-5.5c-0.2-1.5-1.5-2.5-3.3-2.4c-1.6,0-2.8,0.9-2.9,2.4
			c-0.2,2.9-0.4,5.7-0.3,8.6c0.1,3.1,0.8,4,3,4.5c1.7,0.4,3.2-0.6,3.4-2.3C342.8,450,342.9,448.3,343.1,446.5z"/>
		<path class="st0" d="M409.7,459.8c-4.3,0.4-8.1-2.5-8.8-5.8c-0.2-1-0.3-2.1-0.2-3.2c0-0.4,0.7-0.9,1.2-1c0.6-0.2,1.4,0,2.1,0
			c2.2,0,2.2,0,2.6,2.2c0.3,1.6,2.6,2.8,4.6,2.1c0.7-0.3,1.5-1,1.8-1.7c0.4-1.1-0.1-2.1-1.4-2.5c-1.7-0.6-3.4-1.2-5.2-1.8
			c-3.8-1.3-5.7-4.3-5.2-8.8c0.3-2.5,3.1-5.7,6.8-6.3c3.3-0.5,6.5-0.1,8.6,2.7c1,1.3,1.4,3.2,1.9,4.8c0.1,0.4-0.9,1.2-1.5,1.5
			c-0.6,0.3-1.4,0-2,0.1c-1.2,0-2.2,0.2-2.4-1.6c-0.2-1.9-3.5-2.7-5-1.3c-1,0.9-0.4,2.6,1.1,3.2c1.4,0.5,2.9,1,4.4,1.5
			c4.9,1.4,6.4,4.7,5.8,8.9c-0.5,3.8-4,7-8.5,7C410.2,459.8,410,459.8,409.7,459.8z"/>
		<path class="st0" d="M266.8,439.2c0,1.5,0,2.8,0,4.3c0.5,0,1.1,0.1,1.6,0.1c1.9,0,3.8,0,5.7,0c1,0,1.4,0.3,1.4,1.3
			c-0.1,4.8,0.6,4.3-4.2,4.3c-1.4,0-2.8,0-4.4,0c0,1.5,0,2.8,0,4.3c0.3,0,0.7,0.1,1.1,0.1c2.5,0,5,0.1,7.5,0c1.2,0,1.6,0.5,1.3,1.5
			c-0.3,1.2-0.6,2.4-1.1,3.6c-0.2,0.4-1,0.8-1.5,0.8c-4.1,0.1-8.1,0-12.2,0c-0.8,0-1.1-0.3-1.1-1.1c0-7.9,0-15.8,0-23.7
			c0-1,0.5-1.4,1.5-1.4c4.4,0,8.8,0,13.3,0c1.1,0,1.4,0.5,1,1.5c-0.3,0.9-0.6,1.7-0.7,2.6c-0.2,1.3-0.9,1.8-2.2,1.8
			C271.5,439.2,269.1,439.2,266.8,439.2z"/>
		<path class="st0" d="M313.2,449.3c0,2.7,0,5.4,0,8.1c0,1.7-0.4,2.1-2,2.1c-0.7,0-1.4-0.1-2.1,0c-1.5,0.2-1.8-0.6-1.8-1.9
			c0-7.5,0-15,0-22.5c0-1.4,0.6-1.9,1.9-1.9c2.7,0.1,5.3,0,8,0c4,0,7.1,3.3,7.3,7.3c0.2,4.3-2.4,7.6-5.9,8.4
			C316.8,449.3,315.1,449.2,313.2,449.3z M313.2,439.2c0,1.5,0,2.9,0,4.5c1.3-0.1,2.6-0.2,3.8-0.4c1.1-0.2,1.6-1.1,1.4-2
			c-0.2-0.8-0.9-1.8-1.7-2C315.7,438.9,314.4,439.2,313.2,439.2z"/>
		<path class="st0" d="M389.8,439.2c0,2.7,0,5.1,0,7.6c0,3.7,0,7.4,0,11c0,1.2-0.5,1.6-1.7,1.7c-4,0.1-4,0.1-4-3.9c0-5,0-9.9,0-14.9
			c0-0.5,0-1,0-1.6c-1.4,0-2.7,0-3.9,0c-1.3,0-2-0.5-2-1.9c0-3.6-0.3-4.1,3.9-4c3.9,0.1,7.9,0,11.8,0c1.2,0,1.8,0.4,1.8,1.7
			c0,4.1,0,4.2-4.1,4.2C391.1,439.2,390.5,439.2,389.8,439.2z"/>
		<path class="st0" d="M191.7,453.6c2.7,0,5.2,0.1,7.7,0c1.4-0.1,1.6,0.6,1.4,1.7c0,0.1,0,0.2-0.1,0.3c-1.5,4.2-0.1,4-5.2,3.9
			c-2.8,0-5.6,0-8.4,0c-1,0-1.4-0.3-1.4-1.4c0-7.6,0-15.3,0-22.9c0-1.3,0.6-1.9,1.9-2c4-0.1,4-0.1,4,3.8
			C191.7,442.5,191.7,448,191.7,453.6z"/>
		<path class="st0" d="M237.4,453.6c2.4,0,4.9,0,7.4,0c1.6,0,1.9,0.5,1.4,1.9c-1.2,3.9-1.2,3.9-5.4,3.9c-2.6,0-5.2-0.1-7.8,0
			c-1.2,0-1.5-0.3-1.5-1.5c0-6.5,0-13,0-19.5c0-1.2-0.3-2.4-0.2-3.5c0.1-0.6,0.8-1.4,1.4-1.6c0.9-0.3,1.9,0,2.9-0.1
			c1.2-0.1,1.7,0.6,1.7,1.7C237.4,441.1,237.4,447.3,237.4,453.6z"/>
		<path class="st0" d="M140.1,439.8c-1.8,1.8-3.5,3.4-5.2,5c-4,3.9-7.9,7.9-11.9,11.9c-1.4,1.4-1.3,1.3-2.6,0c-1-1-2-2-3-3
			c-0.7-0.6-0.6-1.1,0-1.7c5.5-5.5,11-10.9,16.5-16.4c0.7-0.7,1.3-0.7,2,0C137.2,436.9,138.5,438.2,140.1,439.8z"/>
	</g>
</g>
</svg>
